<svg width="12" height="12" viewBox="0 0 10 10" fill="none" xmlns="http://www.w3.org/2000/svg">
<g clip-path="url(#clip0_0_814)">
<path d="M0.625003 2.53296C0.790707 2.5331 0.949571 2.59905 1.06667 2.71629L4.26334 5.91296C4.36007 6.00972 4.47491 6.08647 4.60131 6.13883C4.72771 6.1912 4.86319 6.21815 5 6.21815C5.13682 6.21815 5.2723 6.1912 5.39869 6.13883C5.52509 6.08647 5.63994 6.00972 5.73667 5.91296L8.93125 2.72046C9.04913 2.60661 9.20701 2.54361 9.37088 2.54504C9.53475 2.54646 9.69151 2.61219 9.80739 2.72807C9.92327 2.84395 9.989 3.00071 9.99042 3.16458C9.99185 3.32846 9.92885 3.48633 9.815 3.60421L6.62292 6.79671C6.19281 7.22597 5.60996 7.46706 5.00229 7.46706C4.39462 7.46706 3.81178 7.22597 3.38167 6.79671L0.185003 3.60004C0.0976623 3.51276 0.0381329 3.40156 0.013927 3.28048C-0.010279 3.1594 0.00192265 3.03386 0.0489928 2.9197C0.0960629 2.80555 0.175892 2.7079 0.278406 2.63907C0.38092 2.57024 0.501525 2.53331 0.625003 2.53296V2.53296Z" fill="#51555F"/>
</g>
<defs>
<clipPath id="clip0_0_814">
<rect width="10" height="10" fill="white" transform="translate(10) rotate(90)"/>
</clipPath>
</defs>
</svg>
